<svg width="42" height="42" viewBox="0 0 42 42" fill="none" xmlns="http://www.w3.org/2000/svg">
<path d="M42 21C42 32.598 32.598 42 21 42C9.40202 42 0 32.598 0 21C0 9.40202 9.40202 0 21 0C32.598 0 42 9.40202 42 21Z" fill="#18181B"/>
<path fill-rule="evenodd" clip-rule="evenodd" d="M21 40.5C31.7696 40.5 40.5 31.7696 40.5 21C40.5 10.2304 31.7696 1.5 21 1.5C10.2304 1.5 1.5 10.2304 1.5 21C1.5 31.7696 10.2304 40.5 21 40.5ZM21 42C32.598 42 42 32.598 42 21C42 9.40202 32.598 0 21 0C9.40202 0 0 9.40202 0 21C0 32.598 9.40202 42 21 42Z" fill="url(#paint0_linear_6710_455)"/>
<path d="M13.375 22.8757C13.375 24.6246 14.7928 26.0423 16.5417 26.0423H23.6667C25.8528 26.0423 27.625 24.2701 27.625 22.084C27.625 19.8979 25.8528 18.1257 23.6667 18.1257C23.6403 18.1257 23.6139 18.1259 23.5876 18.1264C23.2212 16.3193 21.6236 14.959 19.7083 14.959C17.5222 14.959 15.75 16.7312 15.75 18.9173C15.75 19.2157 15.783 19.5063 15.8456 19.7857C14.4315 20.1029 13.375 21.3659 13.375 22.8757Z" stroke="#D4D4D8" stroke-width="1.5" stroke-linecap="round" stroke-linejoin="round"/>
<defs>
<linearGradient id="paint0_linear_6710_455" x1="0" y1="21" x2="42" y2="21" gradientUnits="userSpaceOnUse">
<stop stop-color="#0CBAF1"/>
<stop offset="1" stop-color="#E95CE9"/>
</linearGradient>
</defs>
</svg>
