<svg width="15" height="17" viewBox="0 0 15 17" fill="none" xmlns="http://www.w3.org/2000/svg">
<path fill-rule="evenodd" clip-rule="evenodd" d="M7.20795 0.666992C10.9988 0.666992 14.0829 3.77449 14.0829 7.59449C14.0829 12.2903 8.70295 16.917 7.20795 16.917C5.71295 16.917 0.332947 12.2903 0.332947 7.59449C0.332947 3.77449 3.41711 0.666992 7.20795 0.666992ZM7.20795 1.91699C4.10628 1.91699 1.58295 4.46449 1.58295 7.59449C1.58295 11.577 6.26961 15.457 7.20795 15.6637C8.14628 15.4562 12.8329 11.5762 12.8329 7.59449C12.8329 4.46449 10.3096 1.91699 7.20795 1.91699ZM7.20878 4.83366C8.70211 4.83366 9.91711 6.04866 9.91711 7.54283C9.91711 9.03616 8.70211 10.2503 7.20878 10.2503C5.71545 10.2503 4.50045 9.03616 4.50045 7.54283C4.50045 6.04866 5.71545 4.83366 7.20878 4.83366ZM7.20878 6.08366C6.40461 6.08366 5.75045 6.73783 5.75045 7.54283C5.75045 8.34699 6.40461 9.00033 7.20878 9.00033C8.01295 9.00033 8.66711 8.34699 8.66711 7.54283C8.66711 6.73783 8.01295 6.08366 7.20878 6.08366Z" fill="currentColor"/>
</svg>
