<svg width="19" height="18" viewBox="0 0 19 18" fill="none" xmlns="http://www.w3.org/2000/svg">
<path fill-rule="evenodd" clip-rule="evenodd" d="M4.5479 0.667442C5.47874 0.679942 6.14207 1.37744 6.98124 2.25994C7.18874 2.47744 7.4129 2.71494 7.66374 2.96494C8.87957 4.18161 8.53374 5.17411 8.25457 5.97078C7.95124 6.83994 7.68874 7.58994 9.2604 9.16161C10.8321 10.7333 11.5812 10.4708 12.4496 10.1649C13.2471 9.88661 14.2371 9.53828 15.4554 10.7549C15.7029 11.0024 15.9362 11.2241 16.1529 11.4299C17.0387 12.2733 17.7387 12.9391 17.7505 13.8724C17.7596 14.6674 17.2762 15.4791 16.0829 16.6724L15.5546 16.3141L16.0021 16.7499C15.7379 17.0208 15.0354 17.7424 13.6596 17.7508H13.6346C11.5579 17.7508 8.8504 16.0974 5.58707 12.8349C2.3104 9.55911 0.654571 6.84328 0.667001 4.76244C0.674571 3.38744 1.3954 2.68328 1.66624 2.41911L1.68935 2.39386L1.7454 2.33744C2.94124 1.14161 3.7629 0.649942 4.5479 0.667442ZM4.53207 1.91744H4.5254C4.15119 1.91744 3.58287 2.29244 2.79026 3.06236L2.6311 3.21866L2.6329 3.21828C2.6329 3.21828 2.6193 3.23388 2.59612 3.25752L2.5404 3.31328C2.33874 3.50911 1.92124 3.91661 1.91703 4.76911C1.9104 5.96161 2.69457 8.17578 6.4704 11.9508C10.2279 15.7074 12.4387 16.5008 13.6346 16.5008H13.6521C14.5046 16.4958 14.9112 16.0783 15.1071 15.8774C15.1662 15.8166 15.2146 15.7708 15.2487 15.7433C16.0796 14.9074 16.5046 14.2866 16.5004 13.8874C16.4954 13.4808 15.9896 13.0008 15.2904 12.3349C15.0679 12.1241 14.8262 11.8933 14.5712 11.6383C13.9096 10.9791 13.5837 11.0916 12.8629 11.3449C11.8671 11.6941 10.5029 12.1724 8.37707 10.0449C6.2504 7.91911 6.72707 6.55494 7.07457 5.55828C7.32624 4.83828 7.44124 4.51078 6.7804 3.84911C6.52207 3.59078 6.28957 3.34578 6.0754 3.12078C5.41374 2.42578 4.93624 1.92328 4.53207 1.91744ZM11.7055 3.63203C13.4397 3.96869 14.7788 5.30703 15.1163 7.04203C15.1822 7.38203 14.9613 7.70953 14.623 7.77536C14.5822 7.78286 14.5422 7.78702 14.5022 7.78702C14.2088 7.78702 13.948 7.58036 13.8897 7.28203C13.6497 6.04869 12.6988 5.09786 11.4672 4.85869C11.128 4.79286 10.9072 4.46536 10.973 4.12619C11.0388 3.78703 11.3722 3.56536 11.7055 3.63203ZM11.6556 0.672192C15.0539 1.04969 17.6931 3.68553 18.0739 7.08303C18.1122 7.42636 17.8656 7.73553 17.5231 7.77386C17.4997 7.77636 17.4756 7.77803 17.4522 7.77803C17.1381 7.77803 16.8681 7.54219 16.8322 7.22303C16.5164 4.40969 14.3314 2.22636 11.5172 1.91386C11.1747 1.87553 10.9272 1.56719 10.9656 1.22386C11.0031 0.881359 11.3089 0.628859 11.6556 0.672192Z" fill="currentColor"/>
</svg>
