<svg xmlns="http://www.w3.org/2000/svg" xmlns:xlink="http://www.w3.org/1999/xlink" viewBox="0 0 1055 690"><defs><clipPath id="a"><rect y="149" width="1054.92" height="540.57" fill="none"/></clipPath><linearGradient id="b" x1="69.37" y1="11.81" x2="986.4" y2="11.81" gradientTransform="matrix(1, 0, 0, -1, 0, 688.69)" gradientUnits="userSpaceOnUse"><stop offset="0" stop-color="#0cbaf1"/><stop offset="1" stop-color="#e95ce9"/></linearGradient><linearGradient id="c" x1="527.5" y1="79.69" x2="527.5" y2="-1.31" gradientTransform="matrix(1, 0, 0, -1, 0, 688.69)" gradientUnits="userSpaceOnUse"><stop offset="0" stop-color="#18181b" stop-opacity="0"/><stop offset="0.52" stop-color="#18181b" stop-opacity="0.68"/><stop offset="1" stop-color="#18181b"/></linearGradient><linearGradient id="d" x1="67.7" y1="241.46" x2="177.98" y2="231.96" gradientTransform="matrix(1, 0, 0, -1, 0, 688.69)" gradientUnits="userSpaceOnUse"><stop offset="0" stop-color="#fff"/><stop offset="1" stop-color="#fff" stop-opacity="0"/></linearGradient><clipPath id="e"><rect x="87" y="443" width="72" height="17.89" fill="none"/></clipPath><linearGradient id="f" x1="876.7" y1="241.46" x2="986.98" y2="231.96" xlink:href="#d"/><linearGradient id="g" x1="236.7" y1="403.46" x2="346.98" y2="393.96" xlink:href="#d"/><linearGradient id="h" x1="706.7" y1="403.46" x2="816.98" y2="393.96" xlink:href="#d"/><linearGradient id="i" x1="10.7" y1="54.46" x2="120.98" y2="44.96" xlink:href="#d"/><clipPath id="j"><rect x="26" y="629" width="79" height="20" fill="none"/></clipPath><linearGradient id="k" x1="933.7" y1="54.46" x2="1043.99" y2="44.96" xlink:href="#d"/><linearGradient id="l" x1="471.7" y1="475.46" x2="581.98" y2="465.96" xlink:href="#d"/></defs><title>1Монтажная область 1</title><g clip-path="url(#a)"><path d="M527.79,913.92c131.43,0,238-106.54,238-238s-106.55-238-238-238-238,106.55-238,238S396.35,913.92,527.79,913.92Zm0,.85c131.9,0,238.83-106.93,238.83-238.83S659.69,437.11,527.79,437.11,289,544,289,675.94,395.89,914.77,527.79,914.77Z" fill="#fff" fill-opacity="0.17" fill-rule="evenodd"/><path d="M528.82,986.45c171.5,0,310.52-139,310.52-310.51s-139-310.51-310.52-310.51-310.51,139-310.51,310.51S357.33,986.45,528.82,986.45Zm0,.85c172,0,311.36-139.4,311.36-311.36S700.78,364.58,528.82,364.58,217.46,504,217.46,675.94,356.86,987.3,528.82,987.3Z" fill="#fff" fill-opacity="0.17" fill-rule="evenodd"/><path d="M528.3,1055.88c209.55,0,379.42-169.87,379.42-379.42S737.85,297,528.3,297,148.89,466.91,148.89,676.46,318.76,1055.88,528.3,1055.88Zm0,.84c210,0,380.27-170.25,380.27-380.26S738.32,296.2,528.3,296.2,148,466.45,148,676.46,318.29,1056.72,528.3,1056.72Z" fill="#fff" fill-opacity="0.17" fill-rule="evenodd"/><path d="M527.88,1134.55c252.77,0,457.67-204.9,457.67-457.67S780.65,219.21,527.88,219.21,70.22,424.12,70.22,676.88,275.12,1134.55,527.88,1134.55Zm0,.85c253.23,0,458.52-205.29,458.52-458.52S781.11,218.37,527.88,218.37,69.37,423.65,69.37,676.88,274.65,1135.4,527.88,1135.4Z" fill-rule="evenodd" fill="url(#b)"/><path d="M527.46,1203.07c290.84,0,526.61-235.77,526.61-526.61S818.3,149.85,527.46,149.85.85,385.62.85,676.46,236.62,1203.07,527.46,1203.07Zm0,.85c291.31,0,527.46-236.15,527.46-527.46S818.77,149,527.46,149,0,385.15,0,676.46,236.15,1203.92,527.46,1203.92Z" fill="#fff" fill-opacity="0.17" fill-rule="evenodd"/><path d="M529.34,840.36a163.9,163.9,0,1,0-163.9-163.9A163.9,163.9,0,0,0,529.34,840.36Zm0,.85A164.75,164.75,0,1,0,364.6,676.46,164.75,164.75,0,0,0,529.34,841.21Z" fill="#fff" fill-opacity="0.17" fill-rule="evenodd"/><path d="M0,609H1055v81H0Z" fill="url(#c)"/></g><path d="M174,452a51,51,0,1,1-51-51A51,51,0,0,1,174,452Z" fill="#252532" fill-opacity="0.8"/><path d="M123,502a50,50,0,1,0-50-50A50,50,0,0,0,123,502Zm0,1a51,51,0,1,0-51-51A51,51,0,0,0,123,503Z" fill-opacity="0.3" fill-rule="evenodd" fill="url(#d)"/><g clip-path="url(#e)"><path d="M108.67,455.51h5.09V454h-3.28v-5.78h-1.81Z" fill="#d1d1d1"/><path d="M116.78,454.48c-.73,0-1.11-.63-1.11-1.58s.38-1.6,1.11-1.6,1.11.65,1.11,1.6S117.5,454.48,116.78,454.48Zm0,1.19a2.77,2.77,0,1,0-2.8-2.77A2.67,2.67,0,0,0,116.79,455.67Z" fill="#d1d1d1"/><path d="M122.5,457.32a2.85,2.85,0,0,0,1.92-.59,2.25,2.25,0,0,0,.7-1.74v-4.72h-1.6v.56h0a1.68,1.68,0,0,0-1.47-.71,2.33,2.33,0,0,0-2.2,2.61,2.29,2.29,0,0,0,2.27,2.49,1.7,1.7,0,0,0,1.34-.6h0v.52a.88.88,0,0,1-1,1c-.55,0-.83-.24-.92-.51h-1.62C120.11,456.72,121.06,457.32,122.5,457.32Zm0-3.34c-.63,0-1-.51-1-1.3s.4-1.3,1-1.3,1.06.59,1.06,1.29S123.21,454,122.49,454Z" fill="#d1d1d1"/><path d="M128.4,454.48c-.73,0-1.11-.63-1.11-1.58s.38-1.6,1.11-1.6,1.11.65,1.11,1.6S129.12,454.48,128.4,454.48Zm0,1.19a2.77,2.77,0,1,0-2.8-2.77A2.67,2.67,0,0,0,128.41,455.67Z" fill="#d1d1d1"/><path d="M131.68,455.51h1.67v-5.24h-1.67Zm0-6h1.67v-1.35h-1.67Z" fill="#d1d1d1"/><path d="M134.07,457.23h1.67V455h0a1.75,1.75,0,0,0,1.48.71c1.37,0,2.28-1.09,2.28-2.78s-.84-2.77-2.23-2.77a1.91,1.91,0,0,0-1.59.78h0v-.63h-1.6Zm2.75-2.85c-.72,0-1.13-.58-1.13-1.43s.37-1.49,1.09-1.49,1.06.59,1.06,1.49S137.45,454.38,136.82,454.38Z" fill="#d1d1d1"/><path d="M142.24,455.67c1.37,0,2.38-.59,2.38-1.74,0-1.34-1.08-1.57-2-1.73-.67-.12-1.26-.17-1.26-.54s.32-.48.72-.48.78.14.84.61h1.54c-.08-1-.88-1.67-2.37-1.67-1.23,0-2.25.57-2.25,1.67s1,1.48,1.88,1.63c.69.12,1.32.17,1.32.64s-.31.52-.81.52a.84.84,0,0,1-1-.77h-1.58C139.74,455,140.7,455.67,142.24,455.67Z" fill="#d1d1d1"/><path d="M146.88,455.66a1.8,1.8,0,0,0,1.57-.8h0v.65h1.59v-5.24h-1.66v2.93a.93.93,0,0,1-.92,1.05c-.53,0-.79-.32-.79-.89v-3.09H145v3.44A1.75,1.75,0,0,0,146.88,455.66Z" fill="#d1d1d1"/><path d="M150.8,455.51h1.66v-2.94c0-.62.31-1.06.83-1.06s.74.32.74.89v3.11h1.67v-2.94c0-.62.29-1.06.82-1.06s.74.32.74.89v3.11h1.67V452.1c0-1.18-.59-2-1.78-2a1.85,1.85,0,0,0-1.65.92h0a1.57,1.57,0,0,0-1.47-.92,1.73,1.73,0,0,0-1.58.9h0v-.75H150.8Z" fill="#d1d1d1"/><path d="M95.81,443.41a8.69,8.69,0,1,1-8.69,8.69A8.69,8.69,0,0,1,95.81,443.41Zm8.36,8.69a8.36,8.36,0,0,0-8.36-8.36,8,8,0,0,0-1.1.08c.24,0,.47,0,.71,0a8,8,0,1,1-8,8.68,8.35,8.35,0,0,0,16.7-.36Zm-1.1-.33a7.65,7.65,0,0,0-7.65-7.65,8.43,8.43,0,0,0-1,.06l.62,0a7.28,7.28,0,1,1-7.25,7.93,7.65,7.65,0,0,0,15.29-.32Zm-8-7.28a6.95,6.95,0,1,1-6.94,7.21,6.57,6.57,0,1,0,6.54-7.17,5.25,5.25,0,0,0-.56,0A6.11,6.11,0,0,1,95,444.49Zm5.84,6.62a6.24,6.24,0,0,0-6.24-6.24,8.11,8.11,0,0,0-.86.05h.47a5.87,5.87,0,1,1-5.84,6.43,6.24,6.24,0,0,0,12.47-.23Zm-6.63-5.87A5.54,5.54,0,1,1,88.71,451a5.16,5.16,0,1,0,5.13-5.67l-.38,0A4.93,4.93,0,0,1,94.24,445.24Zm4.43,5.2a4.83,4.83,0,0,0-4.83-4.83,4.17,4.17,0,0,0-.71.06l.32,0A4.46,4.46,0,1,1,89,450.57a4.83,4.83,0,0,0,9.65-.13ZM93.45,446a4.13,4.13,0,1,1-4.12,4.21A3.75,3.75,0,1,0,93.06,446h-.24A4.46,4.46,0,0,1,93.45,446Zm3,3.79a3.4,3.4,0,0,0-4-3.37h.16a3.05,3.05,0,1,1-3,3.43,3.42,3.42,0,0,0,6.84-.05Zm-3.82-3A2.72,2.72,0,1,1,90,449.45h0a2.34,2.34,0,1,0,2.32-2.66h-.09A2.59,2.59,0,0,1,92.66,446.74Zm1.62,2.38a2,2,0,1,0-2,2A2,2,0,0,0,94.28,449.12Z" fill="#d1d1d1" fill-rule="evenodd"/></g><path d="M983,452a51,51,0,1,1-51-51A51,51,0,0,1,983,452Z" fill="#252532" fill-opacity="0.8"/><path d="M932,502a50,50,0,1,0-50-50A50,50,0,0,0,932,502Zm0,1a51,51,0,1,0-51-51A51,51,0,0,0,932,503Z" fill-opacity="0.3" fill-rule="evenodd" fill="url(#f)"/><path d="M912.65,448.68c.19,0,.26.07.26.26v4.32h2.22c.19,0,.26.07.26.26v.39c0,.19-.07.26-.26.26h-2.92c-.19,0-.27-.07-.27-.26v-5c0-.19.08-.26.27-.26Z" fill="#d1d1d1"/><path d="M917.33,450.59a2.19,2.19,0,0,1,4.36,0v1.68a2.19,2.19,0,0,1-4.36,0Zm3.45,0c0-.71-.45-1.1-1.24-1.1s-1.24.39-1.24,1.1v1.69c0,.71.44,1.09,1.24,1.09s1.24-.39,1.24-1.09Z" fill="#d1d1d1"/><path d="M928.19,451.16c.21,0,.26.07.26.27v1a1.56,1.56,0,0,1-.14.71,1.66,1.66,0,0,1-.44.58,2.35,2.35,0,0,1-1.64.51,1.91,1.91,0,0,1-2.18-2v-1.69a1.92,1.92,0,0,1,2.18-2,2,2,0,0,1,2.11,1.29.36.36,0,0,1,0,.1.36.36,0,0,1,0,.11.27.27,0,0,1-.07.08.31.31,0,0,1-.1.05l-.43.14c-.18.07-.26,0-.32-.16a1.17,1.17,0,0,0-.47-.56,1.14,1.14,0,0,0-.72-.15c-.8,0-1.23.39-1.23,1.09v1.74c0,.71.44,1.09,1.23,1.09s1.29-.37,1.29-.9v-.41h-1.18c-.2,0-.27-.07-.27-.26v-.37c0-.2.07-.27.27-.27Z" fill="#d1d1d1"/><path d="M930.7,450.59a2.19,2.19,0,0,1,4.37,0v1.68a2.19,2.19,0,0,1-4.37,0Zm3.44,0c0-.71-.44-1.1-1.23-1.1s-1.24.39-1.24,1.1v1.69c0,.71.44,1.09,1.24,1.09s1.23-.39,1.23-1.09Z" fill="#d1d1d1"/><path d="M937.64,448.84c0-.12,0-.16.15-.16H938c.12,0,.15,0,.15.16V454c0,.12,0,.16-.15.16h-.25c-.12,0-.15,0-.15-.16Z" fill="#d1d1d1"/><path d="M943.16,448.68a1.71,1.71,0,0,1,1.71,1.71,1.74,1.74,0,0,1-.5,1.22,1.72,1.72,0,0,1-1.21.5h-1.64V454c0,.12,0,.16-.14.16h-.25c-.12,0-.16,0-.16-.16v-5.17c0-.12,0-.16.16-.16Zm0,2.89a1.15,1.15,0,0,0,.84-.35,1.2,1.2,0,0,0,.35-.84,1.18,1.18,0,0,0-1.19-1.19h-1.64v2.38Z" fill="#d1d1d1"/><path d="M949.13,448.57a2,2,0,0,1,1.21.26,2,2,0,0,1,.82.93c.05.09,0,.16-.08.2l-.24.11c-.1,0-.14,0-.2-.07a1.46,1.46,0,0,0-.61-.69,1.48,1.48,0,0,0-.9-.2c-.92,0-1.42.36-1.42,1a.8.8,0,0,0,.19.55.88.88,0,0,0,.5.29,4.06,4.06,0,0,0,.91.17,4.06,4.06,0,0,1,1.09.22,1.25,1.25,0,0,1,.65.5,1.2,1.2,0,0,1,.2.8c0,1-.74,1.63-2.11,1.63a1.93,1.93,0,0,1-1.28-.29,2,2,0,0,1-.81-1,.13.13,0,0,1,0-.06.17.17,0,0,1,0-.07l0,0,.06,0,.24-.09h.06l.06,0,0,0a.09.09,0,0,1,0,.06,1.58,1.58,0,0,0,1.56,1c1,0,1.54-.36,1.54-1.09a.88.88,0,0,0-.16-.54.84.84,0,0,0-.48-.3,4.19,4.19,0,0,0-.86-.15l-.59-.08a4.92,4.92,0,0,1-.55-.14,1.4,1.4,0,0,1-.48-.26,1.32,1.32,0,0,1-.34-.47,1.4,1.4,0,0,1-.1-.57C947.16,449.19,947.87,448.57,949.13,448.57Z" fill="#d1d1d1"/><path d="M954.19,452.3a1.52,1.52,0,0,0,.47,1,1.57,1.57,0,0,0,1,.41,1.53,1.53,0,0,0,1-.41,1.58,1.58,0,0,0,.48-1v-3.46c0-.12,0-.16.16-.16h.25c.11,0,.15,0,.15.16v3.46a2.08,2.08,0,0,1-4.15,0v-3.46c0-.12,0-.16.15-.16H954c.11,0,.15,0,.15.16Z" fill="#d1d1d1"/><path d="M965.31,448.68c.12,0,.16,0,.16.16V454c0,.12,0,.16-.16.16h-.23c-.11,0-.15,0-.15-.16v-3.15a10.62,10.62,0,0,1,.09-1.37h0a10.41,10.41,0,0,1-.59,1.21l-1.18,2.07a.28.28,0,0,1-.07.09.2.2,0,0,1-.11,0h-.15a.2.2,0,0,1-.11,0l-.08-.09-1.18-2.09a7.54,7.54,0,0,1-.55-1.19h0a12.77,12.77,0,0,1,.08,1.38V454c0,.12,0,.16-.16.16h-.21c-.12,0-.16,0-.16-.16v-5.17c0-.12,0-.16.16-.16h.2a.31.31,0,0,1,.13,0,.22.22,0,0,1,.09.1L963,452.2l1.9-3.36c0-.11.09-.13.21-.13Z" fill="#d1d1d1"/><path d="M902.94,453.34v3.94a.62.62,0,0,1-.16.41.6.6,0,0,1-.41.16.59.59,0,0,1-.4-.16.58.58,0,0,1-.17-.41v-3.93a1,1,0,0,0,.55.18A.91.91,0,0,0,902.94,453.34Zm4.86-1.14a.57.57,0,0,0-.39.16.55.55,0,0,0-.16.39v.68a.58.58,0,0,0,.17.41.59.59,0,0,0,.4.16.55.55,0,0,0,.57-.57v-.66a.5.5,0,0,0-.16-.42.82.82,0,0,0-.2-.12A.45.45,0,0,0,907.8,452.2Zm-7.23,2.63a1,1,0,0,1-.55-.18v4a.57.57,0,0,0,.17.41.54.54,0,0,0,.4.17A.58.58,0,0,0,901,459a.6.6,0,0,0,.16-.41v-3.92A.93.93,0,0,1,900.57,454.83ZM906,451a.42.42,0,0,0-.22,0,.57.57,0,0,0-.18.12.46.46,0,0,0-.13.18.52.52,0,0,0,0,.21v3a.55.55,0,0,0,.57.57.58.58,0,0,0,.4-.16.58.58,0,0,0,.17-.41v-3a.45.45,0,0,0,0-.23.41.41,0,0,0-.13-.19.46.46,0,0,0-.2-.13.58.58,0,0,0-.23,0Zm-1.81,1.16a.94.94,0,0,1-.57-.18v4a.6.6,0,0,0,.16.41.58.58,0,0,0,.41.17.54.54,0,0,0,.4-.17.57.57,0,0,0,.17-.41v-4a1,1,0,0,1-.6.2Zm-4.88,3V444.14a.48.48,0,0,0-.16-.35.47.47,0,0,0-.35-.15h-.12a.51.51,0,0,0-.52.5v11.08a.51.51,0,0,0,.52.51h.12a.51.51,0,0,0,.36-.15A.51.51,0,0,0,899.33,455.22Zm1.3-.8h-.12a.51.51,0,0,1-.52-.52v-8.44a.53.53,0,0,1,.52-.5h.12a.51.51,0,0,1,.51.5v8.45a.51.51,0,0,1-.51.52Zm1.8-1.3h-.13a.51.51,0,0,1-.5-.51v-5.84a.43.43,0,0,1,0-.19.45.45,0,0,1,.11-.17.46.46,0,0,1,.16-.11.43.43,0,0,1,.19,0h.13a.51.51,0,0,1,.36.15.51.51,0,0,1,.15.36v5.84a.51.51,0,0,1-.15.36A.53.53,0,0,1,902.43,453.12Zm1.81-1.34h-.12a.51.51,0,0,1-.36-.15.48.48,0,0,1-.15-.36v-3.14a.39.39,0,0,1,0-.21.45.45,0,0,1,.11-.17.43.43,0,0,1,.17-.12.45.45,0,0,1,.2,0h.12a.48.48,0,0,1,.36.15.48.48,0,0,1,.16.36v3.16a.65.65,0,0,1,0,.2,1,1,0,0,1-.11.17.62.62,0,0,1-.17.11.45.45,0,0,1-.2,0Zm1.81-1.17h-.12a.53.53,0,0,1-.52-.51v-.82a.57.57,0,0,1,.16-.36.51.51,0,0,1,.36-.15h.12a.51.51,0,0,1,.51.51v.82a.51.51,0,0,1-.15.36.51.51,0,0,1-.36.15Z" fill="#d1d1d1"/><path d="M343,290a51,51,0,1,1-51-51A51,51,0,0,1,343,290Z" fill="#252532" fill-opacity="0.8"/><path d="M292,340a50,50,0,1,0-50-50A50,50,0,0,0,292,340Zm0,1a51,51,0,1,0-51-51A51,51,0,0,0,292,341Z" fill-opacity="0.3" fill-rule="evenodd" fill="url(#g)"/><path d="M267.53,288.88a1.85,1.85,0,0,0-.54,1.5h0a2.23,2.23,0,0,1-.12,1,2.39,2.39,0,0,1-.52.81,2.27,2.27,0,0,1-1.77.65h0a1.88,1.88,0,0,0-1.89,1.08,1.83,1.83,0,0,0-.15,1.13,1.91,1.91,0,0,0,.53,1,1.9,1.9,0,0,0,2.14.37,1.89,1.89,0,0,0,.84-.77,2,2,0,0,0,.24-1.12h0a2.19,2.19,0,0,1,.12-.95,2.43,2.43,0,0,1,.52-.82,2.37,2.37,0,0,1,.81-.51,2.11,2.11,0,0,1,1-.13h0a1.87,1.87,0,0,0,.93-.15,1.88,1.88,0,0,0,.73-.58,1.74,1.74,0,0,0,.37-.86,1.87,1.87,0,0,0-.09-.94,1.94,1.94,0,0,0-.53-.77,1.77,1.77,0,0,0-.83-.42,1.89,1.89,0,0,0-1.75.51Z" fill="#d1d1d1"/><path d="M263.74,291.58h0a2,2,0,0,0,.81-.1,2,2,0,0,0,.69-.44,1.81,1.81,0,0,0,.44-.69,1.77,1.77,0,0,0,.1-.82h0a2.27,2.27,0,0,1,.65-1.77,2.15,2.15,0,0,1,.81-.51,2.1,2.1,0,0,1,1-.13h0a2,2,0,0,0,1.12-.24,1.89,1.89,0,0,0,.77-.84,1.92,1.92,0,0,0,.16-1.13,1.84,1.84,0,0,0-.53-1,1.88,1.88,0,0,0-2.14-.38,1.9,1.9,0,0,0-1.08,1.89h0a2.23,2.23,0,0,1-.65,1.77,2.17,2.17,0,0,1-.81.52,2.35,2.35,0,0,1-.95.13h0a1.89,1.89,0,0,0-.82.09,2,2,0,0,0-.69.44,1.89,1.89,0,0,0-.44.69,1.91,1.91,0,0,0-.1.82h0a2.23,2.23,0,0,1-.65,1.77,2.3,2.3,0,0,1-.81.52,2.19,2.19,0,0,1-.95.12h0a2,2,0,0,0-1.12.24,1.89,1.89,0,0,0-.77.84,1.9,1.9,0,0,0,.37,2.14,1.88,1.88,0,0,0,2.14.38,1.9,1.9,0,0,0,1.08-1.89h0a2.25,2.25,0,0,1,1.46-2.29A2.4,2.4,0,0,1,263.74,291.58Z" fill="#d1d1d1"/><path d="M260.29,290.55a2,2,0,0,0,.44-.69,2,2,0,0,0,.1-.81h0a2.19,2.19,0,0,1,.12-.95,2.3,2.3,0,0,1,.52-.81,2.27,2.27,0,0,1,1.77-.65h0a1.9,1.9,0,0,0,1.12-.24,2,2,0,0,0,.77-.84,1.83,1.83,0,0,0,.15-1.13,2,2,0,0,0-.52-1,1.89,1.89,0,0,0-1-.52,1.85,1.85,0,0,0-1.13.15,1.89,1.89,0,0,0-1.07,1.88h0a2.35,2.35,0,0,1-.13.95,2.17,2.17,0,0,1-.52.81,2.23,2.23,0,0,1-1.77.65h0a1.81,1.81,0,0,0-.92.15,1.89,1.89,0,0,0-1,2.37,1.9,1.9,0,0,0,.53.78,1.86,1.86,0,0,0,.84.42,1.83,1.83,0,0,0,.93,0,1.81,1.81,0,0,0,.81-.48Z" fill="#d1d1d1"/><path d="M276.22,285.42h1.53v7.44h-1.53Z" fill="#d1d1d1"/><path d="M278.61,290.31a2.7,2.7,0,0,1,1.66-2.5,2.68,2.68,0,0,1,2.94.58,2.76,2.76,0,0,1,.75,1.38,2.69,2.69,0,0,1-.16,1.56,2.6,2.6,0,0,1-1,1.21,2.65,2.65,0,0,1-1.5.46,2.62,2.62,0,0,1-1-.2,2.59,2.59,0,0,1-.88-.58,2.62,2.62,0,0,1-.79-1.91Zm3.87,0a1.17,1.17,0,0,0-.74-1.06,1.21,1.21,0,0,0-.68-.05,1.16,1.16,0,0,0-.59.33,1.12,1.12,0,0,0-.31.6,1.19,1.19,0,0,0,.07.67,1.21,1.21,0,0,0,.43.52,1.18,1.18,0,0,0,1.11.11,1.16,1.16,0,0,0,.39-.26,1,1,0,0,0,.25-.4A1,1,0,0,0,282.48,290.31Z" fill="#d1d1d1"/><path d="M290.1,287.77v4.83a2.42,2.42,0,0,1-2.69,2.43,2.53,2.53,0,0,1-1.38-.28,2.48,2.48,0,0,1-1-.95l1.3-.75a1.16,1.16,0,0,0,.48.5,1.23,1.23,0,0,0,.68.14,1.15,1.15,0,0,0,.45,0,1,1,0,0,0,.64-.61,1.09,1.09,0,0,0,.06-.44v-.47a1.92,1.92,0,0,1-.66.51,1.8,1.8,0,0,1-.83.15,2.58,2.58,0,0,1-1.77-4.38,2.55,2.55,0,0,1,1.77-.79,1.94,1.94,0,0,1,.83.15,1.92,1.92,0,0,1,.66.51v-.52Zm-1.49,2.44a1.22,1.22,0,0,0-.18-.7,1.25,1.25,0,0,0-.54-.48,1.28,1.28,0,0,0-.72-.09,1.23,1.23,0,0,0-.65.33,1.24,1.24,0,0,0-.29,1.35,1.26,1.26,0,0,0,.46.56,1.2,1.2,0,0,0,.69.21,1.24,1.24,0,0,0,.47-.06,1.21,1.21,0,0,0,.68-.65A1.09,1.09,0,0,0,288.61,290.21Z" fill="#d1d1d1"/><path d="M291,290.31a2.7,2.7,0,0,1,1.66-2.5,2.69,2.69,0,0,1,1.56-.16,2.77,2.77,0,0,1,1.39.74,2.82,2.82,0,0,1,.74,1.38,2.69,2.69,0,0,1-.16,1.56,2.6,2.6,0,0,1-1,1.21,2.65,2.65,0,0,1-1.5.46,2.71,2.71,0,0,1-1.91-.78,2.62,2.62,0,0,1-.79-1.91Zm3.87,0a1.17,1.17,0,0,0-.74-1.06,1.21,1.21,0,0,0-.68-.05,1.16,1.16,0,0,0-.59.33,1.12,1.12,0,0,0-.31.6,1.19,1.19,0,0,0,.07.67,1.21,1.21,0,0,0,.43.52,1.16,1.16,0,0,0,.65.2,1.18,1.18,0,0,0,.46-.09,1.16,1.16,0,0,0,.39-.26,1.18,1.18,0,0,0,.25-.4A1,1,0,0,0,294.83,290.31Z" fill="#d1d1d1"/><path d="M297.07,286.4a.93.93,0,0,1,.16-.51.91.91,0,0,1,.41-.34,1,1,0,0,1,.53-.05,1,1,0,0,1,.47.25,1,1,0,0,1,.25.47,1,1,0,0,1-.06.53.83.83,0,0,1-.33.41.93.93,0,0,1-.51.16,1,1,0,0,1-.65-.27A1,1,0,0,1,297.07,286.4Zm.16,1.36h1.52v5.1h-1.53Z" fill="#d1d1d1"/><path d="M305.35,290.31a2.39,2.39,0,0,1-.15,1,2.42,2.42,0,0,1-.51.86,2.51,2.51,0,0,1-1.77.84,1.92,1.92,0,0,1-1.52-.62v2.51h-1.53v-7.13h1.53v.48a1.92,1.92,0,0,1,1.52-.62,2.51,2.51,0,0,1,1.77.84,2.42,2.42,0,0,1,.51.86A2.39,2.39,0,0,1,305.35,290.31Zm-1.53,0a1.17,1.17,0,0,0-.22-.67,1.24,1.24,0,0,0-.55-.43,1.25,1.25,0,0,0-.69,0,1.21,1.21,0,0,0-.62.33,1.23,1.23,0,0,0-.25,1.32,1.25,1.25,0,0,0,.45.54,1.22,1.22,0,0,0,.67.2,1.13,1.13,0,0,0,.48-.08,1.09,1.09,0,0,0,.4-.27,1,1,0,0,0,.26-.41A1.12,1.12,0,0,0,303.82,290.31Z" fill="#d1d1d1"/><path d="M310.06,291.33c0,1.17-1,1.67-2.11,1.67a2.3,2.3,0,0,1-1.29-.27,2.26,2.26,0,0,1-.9-.94l1.32-.76a.84.84,0,0,0,.32.46.8.8,0,0,0,.54.14c.37,0,.55-.11.55-.31,0-.56-2.5-.27-2.5-2,0-1.11.93-1.67,2-1.67a2.23,2.23,0,0,1,1.15.28,2.25,2.25,0,0,1,.84.81l-1.3.7a.79.79,0,0,0-.28-.32A.73.73,0,0,0,308,289c-.26,0-.42.1-.42.28C307.56,289.83,310.06,289.44,310.06,291.33Z" fill="#d1d1d1"/><path d="M315.64,287.77v5.09h-1.53v-.48a1.63,1.63,0,0,1-.65.48,1.7,1.7,0,0,1-.8.14,1.9,1.9,0,0,1-1.9-2.11v-3.12h1.52v2.9a.82.82,0,0,0,0,.35.81.81,0,0,0,.19.31,1,1,0,0,0,.3.21.87.87,0,0,0,.36,0c.56,0,.95-.32.95-1v-2.77Z" fill="#d1d1d1"/><path d="M324.4,289.73v3.13h-1.53v-3c0-.51-.24-.83-.73-.83s-.79.35-.79,1v2.88h-1.53v-3c0-.51-.25-.83-.74-.83s-.79.35-.79,1v2.88h-1.53v-5.1h1.53v.47a1.54,1.54,0,0,1,1.36-.61,1.51,1.51,0,0,1,.76.16,1.67,1.67,0,0,1,.58.51,1.7,1.7,0,0,1,1.47-.67A1.91,1.91,0,0,1,324.4,289.73Z" fill="#d1d1d1"/><path d="M325.69,287.73a1.13,1.13,0,1,0-1.13-1.13A1.13,1.13,0,0,0,325.69,287.73Z" fill="#d1d1d1"/><path d="M813,290a51,51,0,1,1-51-51A51,51,0,0,1,813,290Z" fill="#252532" fill-opacity="0.8"/><path d="M762,340a50,50,0,1,0-50-50A50,50,0,0,0,762,340Zm0,1a51,51,0,1,0-51-51A51,51,0,0,0,762,341Z" fill-opacity="0.3" fill-rule="evenodd" fill="url(#h)"/><path d="M734.3,284.57v-2.28h-7.2V298h7.2V295.7a5.57,5.57,0,0,1,0-11.13Z" fill="#d1d1d1"/><path d="M734.3,284.57V295.7a5.57,5.57,0,0,0,0-11.13Z" fill="#d1d1d1"/><path d="M743.9,286h1.62v7.76H743.9Z" fill="#d1d1d1"/><path d="M746.42,291.08a2.81,2.81,0,0,1,.47-1.57,2.85,2.85,0,0,1,1.27-1,2.77,2.77,0,0,1,1.63-.16,2.83,2.83,0,0,1,1.45.78,2.81,2.81,0,0,1-.45,4.34,2.81,2.81,0,0,1-1.57.47,2.85,2.85,0,0,1-1.08-.21,2.8,2.8,0,0,1-.91-.61,3,3,0,0,1-.61-.92A2.69,2.69,0,0,1,746.42,291.08Zm4,0a1.25,1.25,0,0,0-.22-.68,1.2,1.2,0,0,0-.56-.43,1.23,1.23,0,0,0-.71-.06,1.23,1.23,0,0,0-.94,1,1.19,1.19,0,0,0,.07.7,1.36,1.36,0,0,0,.46.55,1.22,1.22,0,0,0,.67.2,1.28,1.28,0,0,0,.48-.09,1.09,1.09,0,0,0,.4-.27,1.06,1.06,0,0,0,.26-.41,1.16,1.16,0,0,0,.08-.48Z" fill="#d1d1d1"/><path d="M758.41,288.42v5.05a2.53,2.53,0,0,1-2.82,2.54,2.78,2.78,0,0,1-1.44-.28,2.67,2.67,0,0,1-1.07-1l1.35-.78a1.22,1.22,0,0,0,.51.52,1.16,1.16,0,0,0,.71.15,1.23,1.23,0,0,0,.47,0,1.12,1.12,0,0,0,.4-.25,1.07,1.07,0,0,0,.26-.39,1,1,0,0,0,.07-.46V293a1.88,1.88,0,0,1-.69.53,2,2,0,0,1-.86.16,2.7,2.7,0,0,1-2.69-2.69,2.72,2.72,0,0,1,.79-1.9,2.69,2.69,0,0,1,1.9-.78,1.83,1.83,0,0,1,.86.16,2,2,0,0,1,.69.52v-.53ZM756.85,291a1.25,1.25,0,0,0-.19-.73,1.21,1.21,0,0,0-.57-.5,1.26,1.26,0,0,0-.74-.1,1.33,1.33,0,0,0-.68.34,1.4,1.4,0,0,0-.37.66,1.29,1.29,0,0,0,.07.75,1.27,1.27,0,0,0,1.19.81,1.4,1.4,0,0,0,.5-.06,1.17,1.17,0,0,0,.42-.27,1.15,1.15,0,0,0,.28-.41A1,1,0,0,0,756.85,291Z" fill="#d1d1d1"/><path d="M759.31,291.08a2.82,2.82,0,0,1,.48-1.57,2.75,2.75,0,0,1,1.27-1,2.82,2.82,0,1,1,0,5.22,2.74,2.74,0,0,1-.92-.61,3,3,0,0,1-.61-.92A2.88,2.88,0,0,1,759.31,291.08Zm4,0a1.17,1.17,0,0,0-.22-.68,1.16,1.16,0,0,0-.55-.43,1.24,1.24,0,0,0-.71-.06,1.23,1.23,0,0,0-.62.34,1.22,1.22,0,0,0-.25,1.34,1.21,1.21,0,0,0,.46.54,1.22,1.22,0,0,0,.67.2,1.28,1.28,0,0,0,.48-.09A1.13,1.13,0,0,0,763,292a1.36,1.36,0,0,0,.26-.41,1.33,1.33,0,0,0,.07-.48Z" fill="#d1d1d1"/><path d="M765.69,287a1,1,0,0,1,.16-.53,1,1,0,0,1,.43-.35,1,1,0,0,1,.55-.06,1,1,0,0,1,.49.26,1,1,0,0,1,.27.49,1.07,1.07,0,0,1-.06.56,1,1,0,0,1-.35.43,1,1,0,0,1-.53.16,1,1,0,0,1-.68-.29A1,1,0,0,1,765.69,287Zm.16,1.42h1.61v5.32h-1.61Z" fill="#d1d1d1"/><path d="M774.36,291.07a2.88,2.88,0,0,1-.15,1.05,2.73,2.73,0,0,1-1.39,1.52,2.6,2.6,0,0,1-1,.25,1.89,1.89,0,0,1-.88-.13,2.18,2.18,0,0,1-.73-.52v2.63h-1.61v-7.45h1.61v.49a2.12,2.12,0,0,1,.73-.5,2.06,2.06,0,0,1,.88-.14,2.71,2.71,0,0,1,1.87.87,2.67,2.67,0,0,1,.54.9A2.78,2.78,0,0,1,774.36,291.07Zm-1.61,0a1.32,1.32,0,0,0-.23-.69,1.28,1.28,0,0,0-.58-.45,1.15,1.15,0,0,0-.73-.06,1.23,1.23,0,0,0-.64.35,1.36,1.36,0,0,0-.34.65,1.29,1.29,0,0,0,.55,1.3,1.33,1.33,0,0,0,1.2.12,1.23,1.23,0,0,0,.43-.28,1.21,1.21,0,0,0,.27-.43A1.46,1.46,0,0,0,772.75,291.07Z" fill="#d1d1d1"/><path d="M779.26,292.14c0,1.22-1.07,1.75-2.21,1.75a2.33,2.33,0,0,1-1.34-.29,2.3,2.3,0,0,1-1-1l1.39-.79a.89.89,0,0,0,.33.48.88.88,0,0,0,.56.15c.39,0,.58-.12.58-.33,0-.59-2.62-.28-2.62-2.12,0-1.16,1-1.74,2.09-1.74a2.32,2.32,0,0,1,1.21.28,2.27,2.27,0,0,1,.89.85l-1.38.73a.77.77,0,0,0-.29-.33.75.75,0,0,0-.43-.13c-.28,0-.44.1-.44.29C776.65,290.58,779.26,290.17,779.26,292.14Z" fill="#d1d1d1"/><path d="M785.1,288.42v5.31h-1.61v-.5a1.75,1.75,0,0,1-.68.52,2,2,0,0,1-.83.15,2,2,0,0,1-2-2.21v-3.27h1.62v3a.81.81,0,0,0,0,.38.83.83,0,0,0,.2.32,1,1,0,0,0,.31.21.82.82,0,0,0,.38.06c.58,0,1-.35,1-1.08v-2.92Z" fill="#d1d1d1"/><path d="M794.24,290.47v3.26h-1.61v-3.12c0-.54-.26-.87-.77-.87s-.83.37-.83,1v3h-1.61v-3.12c0-.54-.25-.87-.76-.87s-.84.37-.84,1v3h-1.61v-5.31h1.61v.48a1.72,1.72,0,0,1,.64-.49,1.66,1.66,0,0,1,.79-.14,1.53,1.53,0,0,1,1.39.7,1.76,1.76,0,0,1,.69-.55,1.78,1.78,0,0,1,.86-.15A2,2,0,0,1,794.24,290.47Z" fill="#d1d1d1"/><path d="M795.59,288.38a1.18,1.18,0,1,0-1.18-1.18A1.18,1.18,0,0,0,795.59,288.38Z" fill="#d1d1d1"/><path d="M117,639a51,51,0,1,1-51-51A51,51,0,0,1,117,639Z" fill="#252532" fill-opacity="0.8"/><path d="M66,689a50,50,0,1,0-50-50A50,50,0,0,0,66,689Zm0,1a51,51,0,1,0-51-51A51,51,0,0,0,66,690Z" fill-opacity="0.3" fill-rule="evenodd" fill="url(#i)"/><g clip-path="url(#j)"><path d="M26.45,643.83v-9.89l4.85,2.75v4.42l3.88,2.23,3.88-2.23v-4.42l4.86-2.75v9.89l-8.74,4.95Z" fill="#d1d1d1"/><path d="M28.88,635.32l-2.43-1.38L35.18,629l8.74,4.94-2.43,1.38v7.28l-6.31,3.7-6.3-3.7Zm12.35.15-2.17,1.22v0l-3.88-2.22-3.88,2.22v0l-2.16-1.22v7l6,3.56,6-3.56Z" fill="#d1d1d1" fill-rule="evenodd"/><path d="M48.56,643.05v-8.31H50.1v6.89h3.73v1.42Z" fill="#d1d1d1"/><path d="M57.14,643.22a3.24,3.24,0,0,1-1.54-.36,2.7,2.7,0,0,1-1.09-1,3.2,3.2,0,0,1-.39-1.63V640a3.19,3.19,0,0,1,.39-1.62,2.73,2.73,0,0,1,1.09-1,3.36,3.36,0,0,1,1.54-.35,3.4,3.4,0,0,1,1.55.35,2.64,2.64,0,0,1,1.08,1,3.09,3.09,0,0,1,.4,1.62v.19a3.1,3.1,0,0,1-.4,1.63,2.61,2.61,0,0,1-1.08,1A3.28,3.28,0,0,1,57.14,643.22Zm0-1.33a1.53,1.53,0,0,0,1.12-.44,1.73,1.73,0,0,0,.44-1.28v-.12a1.68,1.68,0,0,0-.44-1.27,1.61,1.61,0,0,0-2.23,0,1.68,1.68,0,0,0-.45,1.27v.12a1.74,1.74,0,0,0,.45,1.28A1.51,1.51,0,0,0,57.14,641.89Z" fill="#d1d1d1"/><path d="M60.72,640.13v-.19a3.26,3.26,0,0,1,.36-1.58,2.53,2.53,0,0,1,1-1,2.6,2.6,0,0,1,1.31-.35,2.09,2.09,0,0,1,1.2.28,2,2,0,0,1,.59.6h.21v-.72H66.8v6.93a1.34,1.34,0,0,1-.35,1,1.23,1.23,0,0,1-.93.36H61.65v-1.3H65q.33,0,.33-.36v-1.53h-.21a2.2,2.2,0,0,1-.32.39,1.59,1.59,0,0,1-.56.32,2.54,2.54,0,0,1-.89.13,2.5,2.5,0,0,1-2.27-1.35A3.28,3.28,0,0,1,60.72,640.13Zm3.05,1.64a1.57,1.57,0,0,0,1.13-.44,1.63,1.63,0,0,0,.45-1.23V640a1.64,1.64,0,0,0-.45-1.24,1.54,1.54,0,0,0-1.13-.44,1.57,1.57,0,0,0-1.13.44,1.64,1.64,0,0,0-.45,1.24v.12a1.63,1.63,0,0,0,.45,1.23A1.57,1.57,0,0,0,63.77,641.77Z" fill="#d1d1d1"/><path d="M70.65,643.22a3.28,3.28,0,0,1-1.55-.36,2.61,2.61,0,0,1-1.08-1,3.1,3.1,0,0,1-.4-1.63V640a3.09,3.09,0,0,1,.4-1.62,2.64,2.64,0,0,1,1.08-1,3.61,3.61,0,0,1,3.1,0,2.77,2.77,0,0,1,1.08,1,3.19,3.19,0,0,1,.39,1.62v.19a3.2,3.2,0,0,1-.39,1.63,2.74,2.74,0,0,1-1.08,1A3.31,3.31,0,0,1,70.65,643.22Zm0-1.33a1.51,1.51,0,0,0,1.11-.44,1.74,1.74,0,0,0,.45-1.28v-.12a1.68,1.68,0,0,0-.45-1.27,1.45,1.45,0,0,0-1.11-.45,1.5,1.5,0,0,0-1.12.45,1.68,1.68,0,0,0-.44,1.27v.12a1.73,1.73,0,0,0,.44,1.28A1.53,1.53,0,0,0,70.65,641.89Z" fill="#d1d1d1"/><path d="M74.5,643.05v-5.88H76v5.88Zm.74-6.57a1,1,0,0,1-.68-.26.93.93,0,0,1-.27-.69.9.9,0,0,1,.27-.69,1,1,0,0,1,.68-.26.94.94,0,0,1,.67.26.9.9,0,0,1,.27.69.91.91,0,0,1-.94,1Z" fill="#d1d1d1"/><path d="M77.07,645.42v-8.26h1.45v.72h.21a1.77,1.77,0,0,1,.61-.61,2.22,2.22,0,0,1,1.2-.27,2.5,2.5,0,0,1,1.29.35,2.46,2.46,0,0,1,1,1,3.41,3.41,0,0,1,.36,1.63v.19a3.45,3.45,0,0,1-.36,1.64,2.52,2.52,0,0,1-1,1,2.5,2.5,0,0,1-1.29.35,2.77,2.77,0,0,1-.88-.13,1.7,1.7,0,0,1-.57-.31,2.05,2.05,0,0,1-.34-.41h-.21v3Zm3-3.51a1.51,1.51,0,0,0,1.13-.44,1.75,1.75,0,0,0,.45-1.3v-.12a1.71,1.71,0,0,0-.45-1.29,1.62,1.62,0,0,0-2.26,0,1.71,1.71,0,0,0-.45,1.29v.12a1.75,1.75,0,0,0,.45,1.3A1.53,1.53,0,0,0,80.1,641.91Z" fill="#d1d1d1"/><path d="M86.37,643.22a3.21,3.21,0,0,1-1.85-.5,2.05,2.05,0,0,1-.87-1.43l1.35-.35a1.5,1.5,0,0,0,.26.65,1.21,1.21,0,0,0,.48.34,1.85,1.85,0,0,0,.63.1,1.31,1.31,0,0,0,.76-.18.56.56,0,0,0,.24-.46.48.48,0,0,0-.23-.42,2.31,2.31,0,0,0-.75-.25l-.32-.05a5.57,5.57,0,0,1-1.11-.33,2,2,0,0,1-.8-.58,1.44,1.44,0,0,1-.3-1,1.59,1.59,0,0,1,.62-1.34,2.72,2.72,0,0,1,1.66-.47,2.77,2.77,0,0,1,1.6.44,2,2,0,0,1,.84,1.15l-1.36.43a.94.94,0,0,0-.38-.64,1.2,1.2,0,0,0-.7-.19,1.12,1.12,0,0,0-.64.15.44.44,0,0,0-.22.4.46.46,0,0,0,.23.43,1.73,1.73,0,0,0,.63.2l.32.06a6.94,6.94,0,0,1,1.18.32,1.83,1.83,0,0,1,.84.56,1.41,1.41,0,0,1,.31,1,1.71,1.71,0,0,1-.66,1.44A2.85,2.85,0,0,1,86.37,643.22Z" fill="#d1d1d1"/><path d="M91.75,643.15a2.28,2.28,0,0,1-1.18-.31,2.14,2.14,0,0,1-.78-.88,2.77,2.77,0,0,1-.28-1.28v-3.52H91v3.4a1.39,1.39,0,0,0,.32,1,1.19,1.19,0,0,0,.92.34,1.26,1.26,0,0,0,1-.45,2,2,0,0,0,.38-1.28v-3h1.46v5.89H93.65v-.77h-.21a1.62,1.62,0,0,1-.52.58A2,2,0,0,1,91.75,643.15Z" fill="#d1d1d1"/><path d="M96.2,643.05v-5.89h1.45v.65h.21a1.22,1.22,0,0,1,.5-.51,1.76,1.76,0,0,1,2.48.65h.2a1.88,1.88,0,0,1,.56-.63,1.8,1.8,0,0,1,1-.25,2,2,0,0,1,1,.24,1.61,1.61,0,0,1,.69.7,2.3,2.3,0,0,1,.27,1.17v3.87h-1.47v-3.76a1,1,0,0,0-.24-.72.9.9,0,0,0-.69-.25,1,1,0,0,0-.78.33,1.38,1.38,0,0,0-.27.92v3.48H99.65v-3.76a.93.93,0,0,0-.25-.72.89.89,0,0,0-.68-.25,1,1,0,0,0-.78.33,1.38,1.38,0,0,0-.27.92v3.48Z" fill="#d1d1d1"/></g><path d="M1040,639a51,51,0,1,1-51-51A51,51,0,0,1,1040,639Z" fill="#252532" fill-opacity="0.8"/><path d="M989,689a50,50,0,1,0-50-50A50,50,0,0,0,989,689Zm0,1a51,51,0,1,0-51-51A51,51,0,0,0,989,690Z" fill-opacity="0.3" fill-rule="evenodd" fill="url(#k)"/><path d="M974.41,635.85h1.74v7h-1.74Zm2.43,4.38a2.72,2.72,0,1,1,2.72,2.79A2.55,2.55,0,0,1,976.84,640.23Zm3.69,0c0-1-.38-1.52-1-1.52s-1,.58-1,1.52.37,1.51,1,1.51,1-.53,1-1.5Zm2.4,3h1.67a.88.88,0,0,0,.39.42,1,1,0,0,0,.55.11c.67,0,1-.36,1-.89v-1h0a1.65,1.65,0,0,1-1.59,1c-1.27,0-2.11-1-2.11-2.64s.8-2.71,2.14-2.71a1.57,1.57,0,0,1,1,.26,1.64,1.64,0,0,1,.64.76v-1h1.74v5.28c0,1.27-1.12,2.06-2.77,2.06s-2.5-.69-2.6-1.65Zm3.63-3c0-.84-.39-1.38-1-1.38s-1,.53-1,1.38.37,1.34,1,1.34,1-.47,1-1.33Zm2.4,0a2.72,2.72,0,1,1,2.72,2.79,2.52,2.52,0,0,1-2.72-2.78Zm3.69,0c0-1-.38-1.52-1-1.52s-.94.59-.94,1.54.37,1.51,1,1.51.95-.54.95-1.51Zm2.41-3.94a.9.9,0,0,1,1-.9.85.85,0,0,1,.46.24.89.89,0,0,1,.26.45,1,1,0,0,1,0,.51.94.94,0,0,1-.32.41,1,1,0,0,1-.49.16.83.83,0,0,1-.35,0,.79.79,0,0,1-.29-.18.84.84,0,0,1-.2-.29.77.77,0,0,1-.07-.34Zm0,1.28h1.74v5.33h-1.74Zm8.07,2.66c0,1.75-.78,2.74-2.1,2.74a1.65,1.65,0,0,1-1-.24,1.58,1.58,0,0,1-.65-.75h0v2.63h-1.74v-7.05h1.74v1h0a1.66,1.66,0,0,1,.64-.77,1.75,1.75,0,0,1,1-.26c1.33,0,2.13,1,2.13,2.77Zm-1.74,0c0-.84-.39-1.38-1-1.38s-1,.54-1,1.38.4,1.39,1,1.39,1-.53,1-1.37Zm4.73-2.78c1.44,0,2.32.68,2.36,1.78h-1.58c0-.38-.32-.62-.8-.62s-.7.19-.7.46.19.36.58.45l1.12.22c1.06.23,1.51.66,1.51,1.47,0,1.1-1,1.81-2.48,1.81s-2.45-.71-2.53-1.8h1.68c.05.4.37.63.88.63s.74-.17.74-.45-.16-.34-.58-.42l-1-.22c-1-.21-1.59-.76-1.59-1.58,0-1,.95-1.72,2.39-1.72Zm8.31,5.44h-1.68v-1h0a1.49,1.49,0,0,1-.57.82,1.53,1.53,0,0,1-1,.28,1.73,1.73,0,0,1-.78-.12,1.76,1.76,0,0,1-.65-.43,1.81,1.81,0,0,1-.42-.67,1.87,1.87,0,0,1-.1-.78v-3.44H1011v3c0,.63.33,1,.87,1a.9.9,0,0,0,.36-.08.84.84,0,0,0,.3-.22.92.92,0,0,0,.19-.33,1.16,1.16,0,0,0,0-.37v-3h1.74Zm.84-5.33H1017v1h0a1.59,1.59,0,0,1,.56-.83,1.56,1.56,0,0,1,1-.3,1.38,1.38,0,0,1,1.48,1.16h0a1.64,1.64,0,0,1,1.64-1.16,1.65,1.65,0,0,1,.69.12,1.71,1.71,0,0,1,.95,1,1.81,1.81,0,0,1,.1.69v3.63h-1.74v-3.16c0-.58-.27-.85-.75-.85a.87.87,0,0,0-.32.06.76.76,0,0,0-.42.48.69.69,0,0,0,0,.32v3.15h-1.66V639.7c0-.53-.26-.82-.74-.82a.71.71,0,0,0-.32.07.7.7,0,0,0-.26.19.78.78,0,0,0-.16.28.93.93,0,0,0,0,.33v3.14h-1.74Z" fill="#d1d1d1"/><path d="M969.54,636.17a7.81,7.81,0,0,0-1.16-1.87,8,8,0,0,0-2.57-2.06,7.9,7.9,0,0,0-6.43-.27,7.86,7.86,0,0,0-4,11,8,8,0,0,0,2.14,2.5,7.59,7.59,0,0,0,1.86,1.06,7.78,7.78,0,0,0,2.94.58,7.87,7.87,0,0,0,7.86-7.87A7.79,7.79,0,0,0,969.54,636.17ZM962.33,633a6.25,6.25,0,0,1,2.62.58,2.28,2.28,0,0,1-.63.18,3.38,3.38,0,0,0-1.87.94,3.31,3.31,0,0,0-.94,1.88,1.76,1.76,0,0,1-1.58,1.54,3.33,3.33,0,0,0-2.81,2.82,1.77,1.77,0,0,1-.46,1,6.27,6.27,0,0,1-.59-3.07,6.14,6.14,0,0,1,1-3,6.21,6.21,0,0,1,2.27-2.14,6.3,6.3,0,0,1,3-.78Zm-4.81,10.34.21-.19a3.14,3.14,0,0,0,.94-1.87,1.72,1.72,0,0,1,.51-1.06,1.63,1.63,0,0,1,1.05-.5,3.33,3.33,0,0,0,2.81-2.82,1.71,1.71,0,0,1,.51-1.1,1.66,1.66,0,0,1,1.06-.49,3.15,3.15,0,0,0,1.74-.83,5.91,5.91,0,0,1,1.37,1.62l-.07.08a1.69,1.69,0,0,1-1,.51,3.32,3.32,0,0,0-2.82,2.82,1.74,1.74,0,0,1-1.56,1.55,3.35,3.35,0,0,0-2.83,2.82,1.72,1.72,0,0,1-.29.79A6.28,6.28,0,0,1,957.52,643.35Zm4.81,2.25a6.12,6.12,0,0,1-1.75-.25,3.37,3.37,0,0,0,.38-1.16,1.68,1.68,0,0,1,.5-1.05,1.63,1.63,0,0,1,1-.5,3.44,3.44,0,0,0,1.88-.94,3.31,3.31,0,0,0,.94-1.88,1.73,1.73,0,0,1,1.56-1.56,3.42,3.42,0,0,0,1.49-.58,6.34,6.34,0,0,1,.08,2.84,6.24,6.24,0,0,1-1.18,2.59,6.16,6.16,0,0,1-2.19,1.8,6.33,6.33,0,0,1-2.76.66Z" fill="#d1d1d1"/><path d="M578,218a51,51,0,1,1-51-51A51,51,0,0,1,578,218Z" fill="#252532" fill-opacity="0.8"/><path d="M527,268a50,50,0,1,0-50-50A50,50,0,0,0,527,268Zm0,1a51,51,0,1,0-51-51A51,51,0,0,0,527,269Z" fill-opacity="0.3" fill-rule="evenodd" fill="url(#l)"/><path d="M515.05,221.09v-8h-1.31v8Z" fill="#d1d1d1"/><path d="M515.85,218.42a2.77,2.77,0,1,0,2.77-2.79A2.65,2.65,0,0,0,515.85,218.42Zm1.32,0a1.46,1.46,0,1,1,1.45,1.63A1.46,1.46,0,0,1,517.17,218.42Z" fill="#d1d1d1"/><path d="M521.82,218.32a2.46,2.46,0,0,0,2.5,2.66,2.05,2.05,0,0,0,1.77-.83v.91a1.36,1.36,0,0,1-1.46,1.45c-.82,0-1.38-.4-1.45-1.1h-1.33a2.57,2.57,0,0,0,2.7,2.29,2.67,2.67,0,0,0,2.82-2.88v-5h-1.16l-.08.72a2,2,0,0,0-1.77-.89A2.52,2.52,0,0,0,521.82,218.32Zm1.33,0a1.4,1.4,0,0,1,1.39-1.52,1.45,1.45,0,0,1,1.51,1.52,1.47,1.47,0,0,1-1.51,1.56A1.43,1.43,0,0,1,523.15,218.28Z" fill="#d1d1d1"/><path d="M528,218.42a2.77,2.77,0,1,0,2.76-2.79A2.65,2.65,0,0,0,528,218.42Zm1.32,0a1.45,1.45,0,1,1,1.44,1.63A1.46,1.46,0,0,1,529.34,218.42Z" fill="#d1d1d1"/><path d="M535,214.69a.78.78,0,1,0-.78-.78A.77.77,0,0,0,535,214.69Zm-.66,6.4h1.31v-5.31h-1.31Z" fill="#d1d1d1"/><path d="M536.77,223.55h1.28v-3.19a2.12,2.12,0,0,0,1.85.87c1.57,0,2.51-1.2,2.48-2.86a2.48,2.48,0,0,0-2.49-2.75,2,2,0,0,0-1.86,1l-.08-.81h-1.18Zm1.33-5.12a1.48,1.48,0,0,1,1.5-1.62,1.62,1.62,0,1,1-1.5,1.62Z" fill="#d1d1d1"/><path d="M542.72,219.5c0,1.05.86,1.73,2.13,1.73s2.09-.67,2.09-1.7A1.51,1.51,0,0,0,545.6,218l-.94-.23c-.39-.11-.66-.25-.66-.59s.29-.62.76-.62a.73.73,0,0,1,.82.74h1.19a2,2,0,0,0-4-.05c0,.69.4,1.26,1.42,1.53l.93.24c.34.09.56.26.56.56s-.4.61-.88.61-.92-.27-.92-.73Z" fill="#d1d1d1"/><path d="M549.66,221.23a2.07,2.07,0,0,0,1.73-.83l.08.69h1.23v-5.31h-1.31v2.78c0,1-.37,1.5-1.23,1.5-.67,0-1.13-.32-1.13-1.42v-2.86h-1.31v3.32A1.89,1.89,0,0,0,549.66,221.23Z" fill="#d1d1d1"/><path d="M555.17,221.09V218a1.11,1.11,0,0,1,1.13-1.27c.62,0,1,.4,1,1.15v3.17h1.28v-3c0-.87.49-1.28,1.12-1.28a1,1,0,0,1,1,1.15v3.17H562v-3.47a1.81,1.81,0,0,0-2-2,1.73,1.73,0,0,0-1.7,1,1.95,1.95,0,0,0-3.25-.25l-.06-.6h-1.21v5.31Z" fill="#d1d1d1"/><path d="M552,225.84a.37.37,0,1,0-.37-.36A.37.37,0,0,0,552,225.84Z" fill="#d1d1d1"/><path d="M552.76,224.51a1.2,1.2,0,0,0,1.19,1.32,1.13,1.13,0,0,0,1.17-.91h-.46a.68.68,0,0,1-.68.48c-.45,0-.74-.35-.74-.89s.31-.9.75-.9a.65.65,0,0,1,.66.49h.46a1.06,1.06,0,0,0-1.11-.92A1.23,1.23,0,0,0,552.76,224.51Z" fill="#d1d1d1"/><path d="M555.3,224.51a1.29,1.29,0,1,0,1.29-1.33A1.26,1.26,0,0,0,555.3,224.51Zm.49,0a.8.8,0,1,1,.8.89A.8.8,0,0,1,555.79,224.51Z" fill="#d1d1d1"/><path d="M558.77,225.77v-1.51a.59.59,0,0,1,.61-.65.54.54,0,0,1,.56.61v1.55h.47v-1.51a.59.59,0,0,1,.61-.65.53.53,0,0,1,.55.61v1.55H562v-1.65a.85.85,0,0,0-.91-.94.93.93,0,0,1-1.65,0,.84.84,0,0,0-.73.39l0-.31h-.43v2.51Z" fill="#d1d1d1"/><path d="M491.93,218.49v-1.22l0-.09v-.09l0-.1v-.09l0-.09,0-.1,0-.09,0-.09,0-.09,0-.1,0-.09,0-.09,0-.09,0-.09,0-.09,0-.09,0-.09,0-.09,0-.1,0-.09,0-.08,0-.09,0-.09,0-.09,0-.09,0-.09,0-.09,0-.08,0-.09,0-.09,0-.08,0-.09,0-.09.05-.08,0-.09.05-.08,0-.08.05-.09,0-.08.05-.08,0-.09.06-.08.05-.08.05-.08.05-.08.06-.08.06-.08.05-.08.06-.08.06-.07.06-.08.06-.08.06-.07.06-.08.06-.08.06-.07.07-.07.06-.08.07-.07.06-.07.07-.07.07-.07.06-.07.07-.07.07-.07.07-.07.08-.07.07-.06.07-.07.07-.07.08-.06.07-.06.08-.07.07-.06.08-.06.08-.06.08-.06.07-.06.08-.06.08-.06.08-.06.09-.06.08-.05.08-.06.08,0,.09-.05.08-.06.09-.05.08,0,.09-.05.08,0,.09-.05.09-.05.09,0,.08,0,.09,0,.09,0,.09,0,.09,0,.1,0,.09,0,.09,0,.09,0,.09,0,.1,0,.09,0,.09,0,.1,0,.09,0,.1,0,.1,0,.09,0,.1,0,.1,0,.09,0,.1,0,.1,0,.09,0,.1,0,.1,0,.1,0,.1,0,.1,0,.1,0,.1,0h.1l.1,0,.1,0h.2l.1,0h.61l.55,0,0,2.64h1.23l.08,0h.15l.07,0h.08l.07,0h.08l.07,0,.08,0,.07,0,.07,0H504l.07,0,.08,0,.07,0,.07,0,.08,0,.07,0,.07,0,.07,0,.08,0,.07,0,.07,0,.07,0,.07,0,.07,0,.07,0,.07,0,.07,0,.07,0,.07,0,.07,0,.07,0,.07,0,.07,0,.07,0,.06,0,.07,0,.07,0,.06,0,.07,0,.07,0,.06,0,.07,0,.06,0,.07,0,.06,0,.06,0,.07,0,.06,0,.06.05.06.05.06,0,.06.05.06,0,.06.05.06.06.06,0,.06.05.06,0,.05.06.06.05.06.05.05.06.06,0,0,.06.05.06.06.05.05.06.05.06.06.06.05.06,0,.06.05.06.05.06.05.06,0,.06.05.07.05.06,0,.06,0,.07,0,.06.05.07,0,.06,0,.07.05.06,0,.07,0,.07,0,.06,0,.07,0,.07,0,.07,0,.07,0,.07,0,.07,0,.07,0,.07,0,.07,0,.07,0,.08,0,.07,0,.07,0,.07,0,.08,0,.07,0,.08,0,.07,0,.07,0,.08,0,.07,0,.08,0,.08,0,.07,0,.08,0,.07,0,.08,0,.08,0,.08,0,.07,0,.08v.08l0,.08,0,.08v.15l0,.08v2.49l0,.08v.08l0,.08V221l0,.08,0,.08v.08l0,.08,0,.08,0,.08,0,.07,0,.08,0,.08,0,.08,0,.08,0,.08,0,.07,0,.08,0,.08,0,.07,0,.08,0,.08,0,.07,0,.08,0,.08,0,.07,0,.08,0,.07,0,.08,0,.07,0,.07,0,.08,0,.07,0,.07,0,.08,0,.07,0,.07-.05.07,0,.07-.05.07,0,.07-.05.07,0,.07-.05.07-.05.07-.05.06-.05.07,0,.07-.05.07-.05.06-.05.07-.06.06-.05.07-.06.06-.05.06-.06.07-.05.06-.06.06-.06.06-.06.07-.06.06-.06.06-.06.05-.06.06-.06.06-.06.06-.07.06-.06.05-.06.06-.07.05-.06.06-.07.05-.07.05-.07.06-.06,0-.07.05-.07,0-.07.05-.07.05-.07,0-.07.05-.07,0-.08,0-.07,0-.07,0-.08,0-.07,0-.07.05-.08,0-.07,0-.08,0-.08,0-.07,0-.08,0-.08,0-.08,0-.08,0-.07,0-.09,0-.07,0-.09,0-.08,0-.08,0-.08,0-.08,0-.08,0-.08,0-.09,0-.08,0-.08,0-.09,0-.08,0-.09,0-.08,0-.08,0-.09,0-.09,0-.08,0-.09,0-.08,0-.09,0h-.09l-.08,0h-.09l-.09,0h-.17l-.09,0h-2.49l-.08,0h-.09l-.09,0h-.09l-.09,0-.09,0-.08,0-.09,0-.09,0-.09,0-.08,0-.09,0-.09,0-.08,0-.09,0-.09,0-.08,0-.09,0-.08,0-.09,0-.08,0-.09,0-.08,0-.09,0-.08,0-.08,0-.09,0-.08,0-.08,0-.08,0-.09,0-.08,0-.08,0-.08,0-.08-.05-.08,0-.08,0-.08-.05-.07,0-.08-.05-.08,0-.08-.05-.07,0-.08-.05-.08-.06-.07,0-.08-.05-.07-.05-.07,0-.08-.06-.07-.05-.07-.06-.07,0-.07-.06-.07-.06-.08-.06-.06-.06-.07-.06-.07-.06-.07-.06-.07-.06-.06-.07-.07-.06-.06-.06-.07-.07-.06-.06-.07-.07-.06-.07-.06-.06-.06-.07-.06-.07-.06-.07-.06-.07-.06-.07-.06-.07-.05-.07-.06-.07-.06-.08,0-.07-.05-.07-.06-.08-.05-.07-.05-.08-.06-.08-.05-.07,0-.08-.05-.08-.05-.08-.05-.07,0-.08,0-.08-.05-.08,0-.09,0-.08,0-.08,0-.08,0-.08,0-.09,0-.08,0-.08,0-.09,0-.08,0-.09,0-.08,0-.09,0-.08,0-.09,0-.09,0-.08,0-.09,0-.09,0-.09,0-.09,0-.09,0-.08,0-.1,0-.09,0-.08,0-.09,0-.1,0-.09,0-.09,0-.09,0-.09v-.09l0-.09v-.1l0-.09v-1.3Zm9.06-6.86,0-1.8h-.2l-.1,0h-.18l-.09,0h-.09l-.1,0-.09,0H500l-.09,0-.09,0-.09,0-.09,0-.09,0-.09,0-.09,0-.09,0-.09,0-.09,0-.08,0-.09,0-.09,0-.09,0-.08,0-.09,0-.09,0-.08,0-.09,0-.08,0-.09,0-.08,0-.08,0-.09,0-.08,0-.08,0-.09,0-.08,0-.08.05-.08,0-.08,0-.08.05-.08,0-.07.05-.08,0-.08.05-.08,0-.07.05-.08.05-.08,0-.07.05-.07,0-.08.05-.07.06-.07,0-.08.06-.07.05-.07.06-.07.05-.07.06-.07.06-.07.06-.06.06-.07.06-.07.06-.06.06-.07.06-.06.06-.06.06-.07.07-.06.06-.06.07-.06.06-.06.07-.06.06-.06.07-.06.07-.06.07-.05.06-.06.07-.05.07-.06.07-.05.07-.06.07-.05.08-.05.07-.05.07-.05.07,0,.08-.05.07-.05.07,0,.08-.05.07,0,.08-.05.08,0,.07,0,.08-.05.07,0,.08,0,.08,0,.08,0,.08,0,.08,0,.08,0,.07,0,.08,0,.08,0,.08,0,.08,0,.09,0,.08,0,.08,0,.08,0,.08,0,.08,0,.09,0,.08,0,.08,0,.09,0,.08,0,.08,0,.09,0,.08,0,.08,0,.09v.08l0,.09,0,.08,0,.08v.17l0,.09v2.46l0,.09V220l0,.09,0,.08,0,.08v.09l0,.08,0,.08,0,.08,0,.08,0,.08,0,.09,0,.08,0,.08,0,.08,0,.08,0,.08,0,.08,0,.08,0,.07,0,.08,0,.08,0,.08,0,.07,0,.08,0,.08,0,.07,0,.08,0,.07,0,.08,0,.08,0,.07,0,.07,0,.08,0,.07,0,.07,0,.07,0,.07.05.08,0,.07.05.07,0,.07.05.07,0,.06.05.07,0,.07.05.07,0,.06.05.07.05.07.06.06.05.07.05.06.06.06.05.07.06.06.05.06.06.06.05.06.06.06.06.06.06.06.06.06.06.06.06.05.06.06.06,0,.06.06.06.05.07.06.06,0,.06.05.07.05.06.06.07,0,.06.05.07,0,.07,0,.06,0,.07.05.07,0,.07.05.07,0,.07,0,.07,0,.07.05.07,0,.07,0,.07,0,.07,0,.07,0,.08,0,.07,0,.07,0,.08,0,.07,0,.07,0,.08,0,.07,0,.08,0,.08,0,.07,0,.08,0,.07,0,.08,0,.08,0,.07,0,.08,0,.08,0,.08,0,.07,0,.08,0,.08,0,.08,0,.08,0,.08,0,.08,0,.07,0h.09l.07,0,.08,0h.08l.08,0h.08l.08,0h2.65l.07,0h.16l.08,0,.08,0h.07l.08,0,.08,0,.08,0,.07,0,.08,0,.07,0,.08,0,.08,0,.07,0,.08,0,.07,0,.08,0,.07,0,.07,0,.08,0,.07,0,.07,0,.07,0,.08,0,.07,0,.07,0,.07,0,.07,0,.07,0,.07,0,.07,0,.07,0,.07,0,.07,0,.06,0,.07,0,.07,0,.06,0,.07,0,.06,0,.07,0,.06,0,.07-.05.06,0,.06-.05.07,0,.06-.05.06,0,.06-.05.06,0,.06-.05.06,0,.06-.05.06,0,.06-.05.06,0,.05-.05.06-.06.05-.05.06,0,0-.05.06-.06.05,0,.05-.06.06-.05.05-.06.05,0,0-.06.05-.06.05-.06.05-.05,0-.06.05-.06.05-.06,0-.06,0-.06,0-.06.05-.06,0-.07,0-.06.05-.06,0-.06,0-.06,0-.07,0-.06,0-.07,0-.06,0-.06,0-.07,0-.06,0-.07,0-.07,0-.06,0-.07,0-.07,0-.06,0-.07,0-.07,0-.07,0-.06,0-.07,0-.07,0-.07,0-.07,0-.07,0-.07,0-.07,0-.07,0-.07,0-.07,0-.07,0-.07,0-.07,0-.07v-.07l0-.07,0-.07v-.07l0-.08v-.07l0-.07v-2.51l0-.07v-.14l0-.07,0-.07v-.07l0-.07,0-.07,0-.07v-.07l0-.06v-.07l0-.07,0-.07,0-.06,0-.07,0-.07,0-.07,0-.06,0-.07,0-.06,0-.07,0-.06,0-.07,0-.06,0-.07,0-.06,0-.06,0-.06,0-.07,0-.06,0-.06,0-.06,0-.07,0-.06,0-.06,0-.06,0-.06,0,0,0-.06,0-.06,0-.06,0-.06,0,0,0-.06,0-.06,0-.05-.05-.06,0,0,0-.06,0-.05,0-.06-.05,0,0-.05-.05-.05-.05,0-.05-.05,0-.06-.05,0-.05,0-.05,0-.05-.05,0,0-.05-.05-.05,0-.05-.05-.06,0-.05,0,0,0-.06,0-.05,0-.06,0-.05,0-.05,0-.06,0-.06,0,0,0-.06,0-.06,0-.05,0-.06,0-.06,0-.06,0-.06,0-.06,0-.06,0-.05,0-.07,0-.06,0-.06,0-.06,0-.06,0-.06,0-.06,0-.07,0-.06,0-.06,0-.06,0-.07,0-.06,0-.06,0-.07,0-.06,0-.06,0-.07,0-.06,0-.07,0-.06,0-.07,0-.06,0-.07,0-.07,0-.06,0h-.07l-.06,0h-.07l-.06,0h-.07l-.07,0h-.13l-.07,0h-1.22l0,1.79h1.27l0,0h.1l0,0h.05l0,0h.05l0,0,.05,0h.05l0,0,.05,0h0l0,0,.05,0,.05,0,0,0,.05,0,.05,0,0,0,.05,0,0,0,.05,0,0,0,.05,0,0,0,.05,0,0,0,0,0,.05,0,0,0,.05,0,0,0,0,0,0,0,.05,0,0,0,0,0,0,0,0,0,0,0,0,0,0,0,0,0,0,0,0,0,0,0,0,0,0,0,0,0,0,0,0,0,0,0,0,0,0,0,0,0,0,0,0,0,0,0,0,0,0,0,0,0,0,0,0,.05,0,0,0,0,0,0,0,0,0,0,0,0,0,0,0,0,0,0,0,0,0,0,0,0,0,0,0,0,0,0,0,0,0,0,0,.05,0,0,0,.05,0,0,0,0,0,0,0,.05,0,0,0,0,0,0,0,.05,0,0,0,.05,0,.05,0,0v.05l0,0,0,.05,0,.05v0l0,.05v0l0,.05V218l0,.06v.1l0,0v2.38l0,0v.11l0,0v.06l0,.05,0,0V221l0,.05,0,.05,0,0,0,.06v.05l0,0,0,.05,0,.06,0,0,0,.05,0,.05,0,0,0,.05,0,0,0,.06,0,.05,0,0,0,.05,0,.05,0,0,0,0,0,0,0,.05,0,0,0,.05,0,.05,0,0,0,0,0,.05,0,.05,0,0,0,.05,0,0,0,0,0,.05,0,0,0,.05,0,0,0,.05,0,0,0,0,0,0,0,0,0,0,0,0,0,0-.05,0,0,.05,0,0,0,0,0,0-.05,0,0,0,0,0-.05,0,0,0-.05,0-.05,0,0,0,0,0-.05,0,0,0-.05,0,0,0-.05,0-.05,0-.05,0-.05,0,0,0-.05,0-.05,0-.05,0-.05,0,0,0-.06,0-.05,0-.05,0-.05,0-.06,0-.05,0-.06,0-.05,0-.06,0-.05,0-.06,0-.05,0-.06,0-.05,0-.06,0-.06,0-.05,0-.06,0-.06,0-.06,0h-.05l-.06,0-.06,0-.06,0h-.06l-.06,0h-.06l-.06,0h-.06l-.06,0h-2.53l-.06,0h-.13l-.06,0h-.06l-.06,0h-.06l-.06,0-.06,0h-.06l-.06,0-.06,0-.06,0-.07,0-.06,0-.06,0-.06,0-.06,0-.06,0,0,0-.06,0-.06,0-.06,0-.06,0-.06,0-.05,0-.06,0-.06,0-.06,0-.05,0-.06,0-.06,0,0,0-.06,0-.05,0-.06,0-.05,0-.06,0-.05,0-.06,0,0,0-.05,0-.06,0-.05,0-.05,0-.05,0,0,0-.05,0-.06,0,0,0-.06,0-.05,0,0,0-.05,0-.05,0-.05,0,0,0,0,0-.05-.05-.05,0,0,0-.05-.05,0,0-.05-.05,0-.05,0,0-.05-.05,0,0,0-.05,0-.05,0,0,0-.05-.05,0,0-.05,0-.05,0-.06,0-.05,0-.05,0-.06,0,0,0-.06,0-.05,0-.06,0,0,0-.06,0-.06,0-.05,0-.06,0-.06,0-.06,0-.06,0-.06,0-.05,0-.06,0-.06,0-.06,0-.06,0-.06,0-.07,0-.06,0-.06,0-.06,0-.06,0-.06,0-.07,0-.06,0-.06,0-.06,0-.07,0-.06v-.07l0-.06,0-.07v-.06l0-.06v-.07l0-.06v-.14l0-.06v-2.35l0-.07v-.13l0-.07V217l0-.06,0-.07,0-.06v-.07l0-.07,0-.06,0-.07,0-.06,0-.07,0-.06,0-.07,0-.06,0-.07,0-.06,0-.07,0-.06,0-.07,0-.06,0-.06,0-.06,0-.07,0-.06,0-.06,0-.06,0-.07,0-.06,0-.06,0-.06,0-.06,0-.06,0-.06,0-.06,0-.06,0-.06,0-.06.05-.06,0-.05,0-.06.05-.06,0-.06,0-.05,0-.06.05,0,0-.06.05-.05,0-.06.05,0,0-.06,0-.05.05-.05.05,0,0-.05.05-.06.05,0,.05-.05.05-.05,0,0,.05-.05.06,0,.05,0,.05,0,.06-.05.05,0,.06-.05,0,0,.06,0,.06,0,.06,0,.05,0,.06,0,.06,0,.06,0,.06,0,.06,0,.06,0,.06,0,.06,0,.06,0,.07,0,.06,0,.06,0,.07,0,.06,0,.06,0,.07,0,.06,0,.07,0,.07,0,.06,0,.07,0,.07,0,.06,0,.07,0,.07,0,.07,0,.07,0,.06,0,.07,0,.07,0,.07,0,.07,0,.07,0,.07,0,.08,0,.07,0,.07,0h.07l.07,0,.07,0,.08,0,.07,0h.07l.08,0h.07l.07,0h.22l.08,0h.07l.08,0Zm0,2.65,0-1.8h-.2l-.06,0h-.2l-.06,0h-.07l-.06,0h-.06l-.07,0h-.06l-.06,0-.07,0-.06,0-.06,0-.07,0-.06,0-.06,0-.06,0-.07,0-.06,0-.06,0-.06,0-.06,0-.06,0-.06,0-.06,0-.06,0-.06,0-.05,0-.06,0-.06,0-.06,0-.06,0,0,0-.06,0-.05,0-.06,0-.06,0-.05,0-.06,0-.05,0-.06,0,0,0-.05,0-.05,0-.06,0-.05,0-.05,0,0,0-.05,0-.05,0-.05,0-.05,0,0,0-.05,0,0,0-.05,0,0,0-.05,0,0,0-.05,0,0,0-.05.05,0,0-.05,0,0,0,0,0,0,0,0,0,0,.05,0,0,0,0,0,0,0,.05,0,0,0,.05,0,.05,0,0,0,.05,0,0,0,.05,0,.05,0,0,0,.06,0,.05,0,0,0,.05,0,.06,0,.05,0,0,0,.06,0,.05,0,0,0,.06,0,.05,0,.06,0,0,0,.06,0,.05,0,.06,0,.06,0,0,0,.06,0,.06,0,.05,0,.06,0,.06,0,0,0,.06,0,.06,0,.06v0l0,.06,0,.06v.06l0,.06v.11l0,.06v2.46l0,.06v.11l0,.06v0l0,.06,0,.06v.05l0,.06,0,0,0,.06v.05l0,.06,0,0,0,.06,0,.05,0,0,0,.06,0,.05,0,.05,0,0,0,.05,0,.06,0,0,0,.05,0,0,0,.05,0,.05,0,0,0,.05,0,0,0,.05,0,.05,0,0,0,0,0,0,0,.05,0,0,0,0,0,0,0,.05,0,0,0,.05,0,0,0,.05,0,0,0,0,0,.05,0,0,0,0,0,0,0,0,0,0,0,0,0,0,0,0,0,0,0,0,0,0,0,0,0,0,0,0,0,0,.05,0,0,0,0,0,.05,0,0,0,0,0,.05,0,0,0,.05,0,.05,0,0,0,0,0,0,0,.05,0,.05,0,0,0,.05,0,.05,0,.05,0,0,0,.05,0,0,0,.05,0,0,0,.05,0,.05,0,.05,0,.05,0,0,0,.05,0,.05,0,.05,0,.05,0,.06,0,0,0,.05,0,.05,0,.05,0,.05,0,.06,0h0l.05,0,.05,0h.06l.05,0h.1l.06,0h2.5l.05,0h.1l.05,0h.1l.05,0h.05l.05,0,0,0h.05l.05,0,.05,0,.05,0,0,0h.05l0,0,.05,0,0,0,.05,0,0,0,.05,0,0,0,0,0,.05,0,0,0,.05,0,.05,0,0,0,0,0,.05,0,0,0,.05,0,0,0,0,0,0,0,0,0,0,0,0,0,0,0,0,0,0,0,0,0,0,0,0,0,0,0,0,0,0,0,0,0,0,0,0,0,0,0,0,0,0,0,0,0,0,0,0,0,0,0,0,0,0,0,0,0,0,0,0,0,0,0,0,0,0,0,0,0,0,0,0,0,0,0,0,0,0,0,0,0,0,0,0,0,0,0,0,0,0,0,0,0,0-.05,0,0,0,0,0,0,0,0,0-.05,0,0,0,0,0,0,0,0,0,0,0,0,0,0,0,0,0,0,0,0,0,0v0l0,0,0,0v0l0,0v0l0,0v0l0-.05v-.09l0,0v-2.32l0,0v-.09l0,0V218l0,0v0l0,0v-.05l0,0,0,0v0l0,0,0,0,0,0,0,0,0,0,0,0,0,0v0l0,0,0,0,0,0,0,0,0,0,0,0,0,0,0,0,0,0,0,0,0,0,0,0,0,0,0,0,0,0,0,0,0,0,0,0,0,0,0,0,0,0,0,0,0,0,0,0,0,0,0,0,0,0,0,0,0,0,0,0,0,0,0,0,0,0,0,0,0,0,0,0,0,0,0,0,0,0,0,0,0,0,0,0,0,0,0,0,0,0,0,0,0,0,0,0,0,0,0,0,0,0,0,0,0,0,0,0,0,0,0,0,0,0,0,0,0,0,0,0h0l0,0,0,0,0,0,0,0,0,0h0l0,0,0,0h0l0,0h0l0,0h0l0,0h-.08l0,0h-1.28l0,1.76H503l0,0h.09l0,0h0l0,0h.05l0,0h0l0,0h0l0,0h0l0,0,0,0h0l0,0h0l0,0,0,0,0,0h0l0,0v0l0,0,0,0h0l0,0v0l0,0,0,0,0,0,0,0v0l0,0v0l0,0,0,0v0l0,0,0,0v0l0,0v0l0,0V218l0,0v0l0,0v.07l0,0v0l0,0v2.23l0,0v.08l0,0v.05l0,0v.06l0,0v0l0,0v0l0,0,0,0v0l0,0,0,0v0l0,0,0,0,0,0,0,0v0l0,0,0,0,0,0,0,0,0,0,0,0,0,0,0,0,0,0,0,0,0,0,0,0,0,0,0,0,0,0,0,0,0,0,0,0,0,0,0,0,0,0,0,0,0,0,0,0,0,0,0,0,0,0,0,0,0,0,0,0,0,0,0,0,0,0,0,0h0l0,0,0,0,0,0h0l0,0,0,0h0l0,0h0l0,0,0,0h-.06l0,0h0l0,0h-.06l0,0h-.19l0,0H500l0,0h-.14l0,0h-.11l0,0h0l0,0h0l0,0h0l0,0,0,0h0l0,0,0,0,0,0,0,0h0l0,0,0,0,0,0,0,0,0,0,0,0,0,0,0,0,0,0,0,0,0,0,0,0,0,0,0,0,0,0,0,0,0,0,0,0,0,0,0,0,0,0,0,0,0,0,0,0,0,0,0,0,0,0,0,0,0,0,0,0,0,0,0,0,0,0,0,0,0,0,0,0,0,0,0,0,0,0,0,0,0,0,0,0,0,0,0,0,0,0,0,0,0,0,0,0,0,0,0,0,0,0,0,0,0,0,0,0v0l0,0,0,0,0,0,0,0v0l0,0,0,0v0l0,0v0l0,0v0l0,0v0l0,0v-.16l0,0v-2.12l0,0v-.17l0,0v-.08l0,0v0l0,0v0l0,0,0,0v0l0,0,0,0,0,0v0l0,0,0,0,0,0,0,0,0,0,0,0,0,0,0,0,0,0,0,0,0,0,0,0,0,0,0,0,0,0,0,0,0,0,0,0,0,0,0,0,0,0,0,0,0,0,0,0,0,0,0,0,0,0,0,0,0,0,0,0,0,0,0,0,0,0,0,0,0,0,0,0,0,0,0,0,0,0,0,0,0,0,0,0,0,0,0,0,0,0,0,0,0,0,0,0,0,0,0,0,0,0,0,0,0,0,0,0,0,0,0,0,0,0,0,0,0,0,0,0,0,0,0,0,0,0,0,0,.05,0,0,0,0,0,0,0,.05,0,0,0,0,0,.05,0,0,0h0l.05,0,0,0h0l0,0h.05l0,0h.05l0,0h.09l.05,0h.23l.05,0H501Zm.58,3.4-.54.12,0-2.66h-.33l0,0h-.11l0,0h0l0,0h-.07l0,0h0l0,0,0,0h0l0,0,0,0h0l0,0,0,0,0,0h0l0,0,0,0,0,0,0,0,0,0,0,0,0,0,0,0,0,0,0,0,0,0,0,0,0,0,0,0,0,0,0,0,0,0,0,0,0,0,0,0,0,0,0,0,0,0,0,0,0,0,0,0,0,0,0,0,0,0,0,0,0,0,0,0,0,0,0,0,0,0,0,0,0,0,0,0,0,0,0,0,0,0,0,0,0,0,0,0,0,0,0,0,0,0,0,0,0,0,0,0,0,0,0,0v0l0,0,0,0,0,0v0l0,0v0l0,0v0l0,0v0l0,0v.07l0,0v.13l0,0v2.25l0,0v.09l0,0v0l0,0V220l0,0v0l0,0,0,0v0l0,0v0l0,0,0,0v0l0,0,0,0,0,0,0,0v0l0,0,0,0,0,0,0,0,0,0,0,0,0,0,0,0,0,0,0,0,0,0,0,0,0,0,0,0,0,0,0,0,0,0,0,0,0,0,0,0,0,0,0,0,0,0,0,0,0,0h0l0,0,0,0,0,0h0l0,0,0,0,0,0h0l0,0h0l0,0h0l0,0h0l0,0h.05l0,0h0l0,0h.1l0,0h2.27l0,0h.11l0,0h.07l0,0h0l0,0h0l0,0h0l0,0h0l0,0h0l0,0h0l0,0,0,0h0v0h0l0,0v0h0l0,0v0h0l0,0v0h0v0l0,0v0l0,0h0l0,0v0l0,0h0l0,0v-.08l0,0v0h0v-.06l0,0V219h0v-.1h0v-.1h0v0h0v-.06h0v0h0v0h0v0h0v0h0v0h0v0h0v0h0v0h0v0h0v0h0v0h0l0,0h0v0h0v0h-.09v0h-1.25Z" fill="#d1d1d1" fill-rule="evenodd"/></svg>