<svg width="1097" height="721" viewBox="0 0 1097 721" fill="none" xmlns="http://www.w3.org/2000/svg">
<g clip-path="url(#clip0_6713_1252)">
<path opacity="0.2" fill-rule="evenodd" clip-rule="evenodd" d="M1409.06 728.564L-87.7432 -0.21875L-88.6423 0.21901L1408.17 729.002L1409.06 728.564Z" fill="white" fill-opacity="0.4"/>
<path opacity="0.2" fill-rule="evenodd" clip-rule="evenodd" d="M1321.02 771.433L-175.791 42.6504L-176.69 43.0882L1320.12 771.871L1321.02 771.433Z" fill="white" fill-opacity="0.4"/>
<path opacity="0.2" fill-rule="evenodd" clip-rule="evenodd" d="M1232.97 814.303L-263.839 85.5205L-264.738 85.9583L1232.07 814.741L1232.97 814.303Z" fill="white" fill-opacity="0.4"/>
<path opacity="0.2" fill-rule="evenodd" clip-rule="evenodd" d="M1144.92 857.172L-351.886 128.39L-352.785 128.827L1144.02 857.61L1144.92 857.172Z" fill="white" fill-opacity="0.4"/>
<path opacity="0.2" fill-rule="evenodd" clip-rule="evenodd" d="M1056.87 900.043L-439.933 171.26L-440.832 171.698L1055.97 900.48L1056.87 900.043Z" fill="white" fill-opacity="0.4"/>
<path opacity="0.2" fill-rule="evenodd" clip-rule="evenodd" d="M968.827 942.912L-527.98 214.129L-528.88 214.567L967.928 943.349L968.827 942.912Z" fill="white" fill-opacity="0.4"/>
<path opacity="0.2" fill-rule="evenodd" clip-rule="evenodd" d="M880.78 985.782L-616.028 256.999L-616.927 257.437L879.88 986.22L880.78 985.782Z" fill="white" fill-opacity="0.4"/>
<path opacity="0.2" fill-rule="evenodd" clip-rule="evenodd" d="M792.731 1028.65L-704.077 299.868L-704.976 300.306L791.832 1029.09L792.731 1028.65Z" fill="white" fill-opacity="0.4"/>
<path opacity="0.2" fill-rule="evenodd" clip-rule="evenodd" d="M704.683 1071.52L-792.124 342.738L-793.023 343.176L703.784 1071.96L704.683 1071.52Z" fill="white" fill-opacity="0.4"/>
<path opacity="0.2" fill-rule="evenodd" clip-rule="evenodd" d="M616.636 1114.39L-880.171 385.607L-881.07 386.045L615.737 1114.83L616.636 1114.39Z" fill="white" fill-opacity="0.4"/>
<path opacity="0.2" fill-rule="evenodd" clip-rule="evenodd" d="M528.589 1157.26L-968.219 428.477L-969.118 428.914L527.69 1157.7L528.589 1157.26Z" fill="white" fill-opacity="0.4"/>
<path opacity="0.2" fill-rule="evenodd" clip-rule="evenodd" d="M440.542 1200.13L-1056.27 471.347L-1057.16 471.784L439.643 1200.57L440.542 1200.13Z" fill="white" fill-opacity="0.4"/>
<path opacity="0.2" fill-rule="evenodd" clip-rule="evenodd" d="M352.494 1243L-1144.31 514.216L-1145.21 514.654L351.595 1243.44L352.494 1243Z" fill="white" fill-opacity="0.4"/>
<path opacity="0.2" fill-rule="evenodd" clip-rule="evenodd" d="M264.446 1285.87L-1232.36 557.086L-1233.26 557.524L263.546 1286.31L264.446 1285.87Z" fill="white" fill-opacity="0.4"/>
<path opacity="0.2" fill-rule="evenodd" clip-rule="evenodd" d="M176.398 1328.74L-1320.41 599.955L-1321.31 600.393L175.499 1329.18L176.398 1328.74Z" fill="white" fill-opacity="0.4"/>
<path opacity="0.2" fill-rule="evenodd" clip-rule="evenodd" d="M88.3513 1371.61L-1408.46 642.825L-1409.36 643.263L87.4522 1372.05L88.3513 1371.61Z" fill="white" fill-opacity="0.4"/>
<path opacity="0.2" fill-rule="evenodd" clip-rule="evenodd" d="M0.304207 1414.48L-1496.5 685.694L-1497.4 686.132L-0.594885 1414.91L0.304207 1414.48Z" fill="white" fill-opacity="0.4"/>
<path opacity="0.2" fill-rule="evenodd" clip-rule="evenodd" d="M-1408.46 814.741L88.3519 85.9583L87.4528 85.5205L-1409.35 814.303L-1408.46 814.741Z" fill="white" fill-opacity="0.4"/>
<path opacity="0.2" fill-rule="evenodd" clip-rule="evenodd" d="M-1320.41 857.61L176.399 128.827L175.5 128.39L-1321.31 857.172L-1320.41 857.61Z" fill="white" fill-opacity="0.4"/>
<path opacity="0.2" fill-rule="evenodd" clip-rule="evenodd" d="M-1232.36 900.48L264.446 171.698L263.547 171.26L-1233.26 900.043L-1232.36 900.48Z" fill="white" fill-opacity="0.4"/>
<path opacity="0.2" fill-rule="evenodd" clip-rule="evenodd" d="M-1144.31 943.349L352.494 214.567L351.595 214.129L-1145.21 942.912L-1144.31 943.349Z" fill="white" fill-opacity="0.4"/>
<path opacity="0.2" fill-rule="evenodd" clip-rule="evenodd" d="M-1056.27 986.22L440.541 257.437L439.642 256.999L-1057.17 985.782L-1056.27 986.22Z" fill="white" fill-opacity="0.4"/>
<path opacity="0.2" fill-rule="evenodd" clip-rule="evenodd" d="M-968.218 1029.09L528.589 300.306L527.69 299.868L-969.118 1028.65L-968.218 1029.09Z" fill="white" fill-opacity="0.4"/>
<path opacity="0.2" fill-rule="evenodd" clip-rule="evenodd" d="M-880.171 1071.96L616.636 343.176L615.737 342.738L-881.07 1071.52L-880.171 1071.96Z" fill="white" fill-opacity="0.4"/>
<path opacity="0.2" fill-rule="evenodd" clip-rule="evenodd" d="M-792.141 1114.83L704.667 386.045L703.768 385.607L-793.04 1114.39L-792.141 1114.83Z" fill="white" fill-opacity="0.4"/>
<path opacity="0.2" fill-rule="evenodd" clip-rule="evenodd" d="M-704.093 1157.7L792.714 428.914L791.815 428.477L-704.992 1157.26L-704.093 1157.7Z" fill="white" fill-opacity="0.4"/>
<path opacity="0.2" fill-rule="evenodd" clip-rule="evenodd" d="M-616.046 1200.57L880.762 471.784L879.862 471.347L-616.945 1200.13L-616.046 1200.57Z" fill="white" fill-opacity="0.4"/>
<path opacity="0.2" fill-rule="evenodd" clip-rule="evenodd" d="M-527.998 1243.44L968.809 514.654L967.91 514.216L-528.897 1243L-527.998 1243.44Z" fill="white" fill-opacity="0.4"/>
<path opacity="0.2" fill-rule="evenodd" clip-rule="evenodd" d="M-439.951 1286.31L1056.86 557.524L1055.96 557.086L-440.85 1285.87L-439.951 1286.31Z" fill="white" fill-opacity="0.4"/>
<path opacity="0.2" fill-rule="evenodd" clip-rule="evenodd" d="M-351.904 1329.18L1144.9 600.393L1144 599.955L-352.803 1328.74L-351.904 1329.18Z" fill="white" fill-opacity="0.4"/>
<path opacity="0.2" fill-rule="evenodd" clip-rule="evenodd" d="M-263.856 1372.05L1232.95 643.263L1232.05 642.825L-264.755 1371.61L-263.856 1372.05Z" fill="white" fill-opacity="0.4"/>
</g>
<defs>
<clipPath id="clip0_6713_1252">
<rect width="2682" height="721" fill="white" transform="translate(-1585)"/>
</clipPath>
</defs>
</svg>
